# xmcd
#
# Track frame offsets:
# 150
# 5152
# 13317
# 26012
# 32550
# 36911
# 54039
# 65258
# 85145
# 104298
# 106729
# 123044
# 127691
# 130262
# 153002
# 157909
# 161934
# 174898
# 185118
# 188438
# 205818
# 219674
#
# Disc length: 3151 seconds
#
#
# Revision: 1
# Processed by: cddbd v1.5PL3 Copyright (c) Steve Scherf et al.
# Submitted via: FreeRIP 2.60 
#
DISCID=120c4d16
DTITLE=Bruno and Marrone - Minha Vida Minha Música
DYEAR=2002
DGENRE=Sertanejo
TTITLE0=Abertura com Eliakin Araújo (Vida Vazia)
TTITLE1=O encontro
TTITLE2=Apaixonado (Moreninha Linda)
TTITLE3=A escolha do nome
TTITLE4=Introdução à Parabéns pro nosso amor
TTITLE5=Parabéns pro nosso amor
TTITLE6=Goiânia
TTITLE7=Bijuteria
TTITLE8=Carro Velho
TTITLE9=Introdução à Usted
TTITLE10=Usted
TTITLE11=São Paulo
TTITLE12=Introdução à Homem do meu tempo
TTITLE13=Homem do meu tempo
TTITLE14=Inspiraçào
TTITLE15=Introdução à Fio de Cabelo
TTITLE16=Fio de Cabelo (com Chitãozinho and Xororó)
TTITLE17=O Primeiro Grande Show
TTITLE18=Introdução à Medo
TTITLE19=Medo
TTITLE20=Encerramento: Vida Vazia
TTITLE21=Usted (faixa bônus)
EXTD=
EXTT0=
EXTT1=
EXTT2=
EXTT3=
EXTT4=
EXTT5=
EXTT6=
EXTT7=
EXTT8=
EXTT9=
EXTT10=
EXTT11=
EXTT12=
EXTT13=
EXTT14=
EXTT15=
EXTT16=
EXTT17=
EXTT18=
EXTT19=
EXTT20=
EXTT21=
PLAYORDER=
